<svg width="775" height="494" viewBox="0 0 775 494" fill="none" xmlns="http://www.w3.org/2000/svg">
<g id="Background">
<path id="Vector" d="M774.56 387.752C754.56 426.272 727.35 451.792 696.79 468.032C687.959 472.716 678.778 476.708 669.33 479.972C613.72 499.272 551.48 494.152 502.59 483.962C468.299 476.809 433.492 472.408 398.5 470.802C388.52 470.352 378.53 470.129 368.53 470.132C353.11 470.152 337.693 470.726 322.28 471.852C222.11 479.212 68.46 465.422 0.859985 328.562L170 0.962341L232.95 162.582L253.04 214.172L308.41 138.192L337 98.9623L467.2 248.232L504 166.962L758.78 374.882L772.99 386.472L774.56 387.752Z" fill="#F2F2F2"/>
<path id="Vector_2" opacity="0.1" d="M146 105.962L172 48.962L208 131.962L177 71.962L146 105.962Z" fill="black"/>
<path id="Vector_3" opacity="0.1" d="M398.5 470.802C388.52 470.352 378.53 470.129 368.53 470.132L253.04 214.172L398.5 470.802Z" fill="black"/>
<path id="Vector_4" opacity="0.1" d="M308.411 138.191L337 115.962L467 265.962L335 137.962L308.411 138.191Z" fill="black"/>
<path id="Vector_5" opacity="0.1" d="M696.79 468.032C687.959 472.717 678.778 476.708 669.33 479.972L467.2 248.232L696.79 468.032Z" fill="black"/>
</g>
</svg>
