<svg width="92" height="147" viewBox="0 0 92 147" fill="none" xmlns="http://www.w3.org/2000/svg">
<g id="campfire">
<path id="Vector" d="M79 96C79 129.137 64.2254 120 46 120C27.7746 120 13 129.137 13 96C13 62.8629 46 0 46 0C46 0 79 62.8629 79 96Z" fill="#FF6584"/>
<path id="Vector_2" opacity="0.1" d="M61 108.678C61 123.741 54.2843 119.588 46 119.588C37.7157 119.588 31 123.741 31 108.678C31 93.6162 46 65.0421 46 65.0421C46 65.0421 61 93.6162 61 108.678Z" fill="black"/>
<path id="Vector_3" d="M83 129H9C4.02944 129 0 133.029 0 138C0 142.971 4.02944 147 9 147H83C87.9706 147 92 142.971 92 138C92 133.029 87.9706 129 83 129Z" fill="#2F2E41"/>
<path id="Vector_4" d="M83 111H9C4.02944 111 0 115.029 0 120C0 124.971 4.02944 129 9 129H83C87.9706 129 92 124.971 92 120C92 115.029 87.9706 111 83 111Z" fill="#2F2E41"/>
</g>
</svg>
