<svg width="1088" height="688" viewBox="0 0 1088 688" fill="none" xmlns="http://www.w3.org/2000/svg">
<g id="undraw_into_the_night_vumi 1">
<g id="Background">
<path id="Vector" d="M930.56 564.752C910.56 603.272 883.35 628.792 852.79 645.032C843.959 649.716 834.778 653.708 825.33 656.972C769.72 676.272 707.48 671.152 658.59 660.962C624.299 653.809 589.492 649.408 554.5 647.802C544.52 647.352 534.53 647.129 524.53 647.132C509.11 647.152 493.693 647.726 478.28 648.852C378.11 656.212 224.46 642.422 156.86 505.562L326 177.962L388.95 339.582L409.04 391.172L464.41 315.192L493 275.962L623.2 425.232L660 343.962L914.78 551.882L928.99 563.472L930.56 564.752Z" fill="#F2F2F2"/>
<path id="Vector_2" opacity="0.1" d="M302 282.962L328 225.962L364 308.962L333 248.962L302 282.962Z" fill="black"/>
<path id="Vector_3" opacity="0.1" d="M554.5 647.802C544.52 647.352 534.53 647.129 524.53 647.132L409.04 391.172L554.5 647.802Z" fill="black"/>
<path id="Vector_4" opacity="0.1" d="M464.411 315.191L493 292.962L623 442.962L491 314.962L464.411 315.191Z" fill="black"/>
<path id="Vector_5" opacity="0.1" d="M852.79 645.032C843.959 649.717 834.778 653.708 825.33 656.972L623.2 425.232L852.79 645.032Z" fill="black"/>
</g>
<g id="stars">
<path id="Vector_6" d="M482 104.962C483.657 104.962 485 103.619 485 101.962C485 100.305 483.657 98.9623 482 98.9623C480.343 98.9623 479 100.305 479 101.962C479 103.619 480.343 104.962 482 104.962Z" fill="#F2F2F2"/>
<path id="Vector_7" d="M399 207.962C400.657 207.962 402 206.619 402 204.962C402 203.305 400.657 201.962 399 201.962C397.343 201.962 396 203.305 396 204.962C396 206.619 397.343 207.962 399 207.962Z" fill="#F2F2F2"/>
<path id="Vector_8" d="M602 224.962C603.105 224.962 604 224.067 604 222.962C604 221.858 603.105 220.962 602 220.962C600.895 220.962 600 221.858 600 222.962C600 224.067 600.895 224.962 602 224.962Z" fill="#F2F2F2"/>
<path id="Vector_9" d="M182 269.962C183.105 269.962 184 269.067 184 267.962C184 266.858 183.105 265.962 182 265.962C180.895 265.962 180 266.858 180 267.962C180 269.067 180.895 269.962 182 269.962Z" fill="#F2F2F2"/>
<path id="Vector_10" d="M614 100.962C615.105 100.962 616 100.067 616 98.9623C616 97.8578 615.105 96.9623 614 96.9623C612.895 96.9623 612 97.8578 612 98.9623C612 100.067 612.895 100.962 614 100.962Z" fill="#F2F2F2"/>
<path id="Vector_11" d="M738 196.962C739.105 196.962 740 196.067 740 194.962C740 193.858 739.105 192.962 738 192.962C736.895 192.962 736 193.858 736 194.962C736 196.067 736.895 196.962 738 196.962Z" fill="#F2F2F2"/>
<path id="Vector_12" d="M860 348.962C861.105 348.962 862 348.067 862 346.962C862 345.858 861.105 344.962 860 344.962C858.895 344.962 858 345.858 858 346.962C858 348.067 858.895 348.962 860 348.962Z" fill="#F2F2F2"/>
<path id="Vector_13" d="M306 121.222H303.24V118.462H301.76V121.222H299V122.703H301.76V125.462H303.24V122.703H306V121.222Z" fill="#F2F2F2"/>
<path id="Vector_14" d="M848 424.222H845.24V421.462H843.76V424.222H841V425.703H843.76V428.462H845.24V425.703H848V424.222Z" fill="#F2F2F2"/>
</g>
<g id="campfire">
<path id="Vector_15" d="M577 611C577 644.137 562.225 635 544 635C525.775 635 511 644.137 511 611C511 577.863 544 515 544 515C544 515 577 577.863 577 611Z" fill="#FF6584"/>
<path id="Vector_16" opacity="0.1" d="M559 623.678C559 638.741 552.284 634.588 544 634.588C535.716 634.588 529 638.741 529 623.678C529 608.616 544 580.042 544 580.042C544 580.042 559 608.616 559 623.678Z" fill="black"/>
<path id="Vector_17" d="M581 644H507C502.029 644 498 648.029 498 653C498 657.971 502.029 662 507 662H581C585.971 662 590 657.971 590 653C590 648.029 585.971 644 581 644Z" fill="#2F2E41"/>
<path id="Vector_18" d="M581 626H507C502.029 626 498 630.029 498 635C498 639.971 502.029 644 507 644H581C585.971 644 590 639.971 590 635C590 630.029 585.971 626 581 626Z" fill="#2F2E41"/>
</g>
<g id="plants and rocks">
<path id="Vector_19" d="M137.611 517.25C137.611 572.594 172.33 617.377 215.237 617.377Z" fill="#3F3D56"/>
<path id="Vector_20" d="M215.237 617.377C215.237 561.412 253.982 516.125 301.863 516.125Z" fill="#F07C41"/>
<path id="Vector_21" d="M165.736 522.267C165.736 574.838 187.876 617.377 215.237 617.377Z" fill="#F07C41"/>
<path id="Vector_22" d="M215.237 617.377C215.237 545.866 260.02 488 315.363 488Z" fill="#3F3D56"/>
<path id="Vector_23" d="M722.04 553.784C722.04 591.813 745.897 622.586 775.38 622.586Z" fill="#3F3D56"/>
<path id="Vector_24" d="M775.38 622.586C775.38 584.129 802.004 553.011 834.905 553.011Z" fill="#F07C41"/>
<path id="Vector_25" d="M741.366 557.232C741.366 593.355 756.58 622.586 775.38 622.586Z" fill="#F07C41"/>
<path id="Vector_26" d="M775.38 622.586C775.38 573.447 806.153 533.685 844.182 533.685Z" fill="#3F3D56"/>
<path id="Vector_27" d="M764.159 623.071C764.159 623.071 771.724 622.838 774.003 621.214C776.283 619.591 785.64 617.653 786.205 620.256C786.771 622.86 797.573 633.205 789.033 633.274C780.493 633.343 769.189 631.944 766.913 630.558C764.638 629.172 764.159 623.071 764.159 623.071Z" fill="#A8A8A8"/>
<path id="Vector_28" opacity="0.2" d="M789.185 632.368C780.645 632.437 769.341 631.037 767.066 629.651C765.333 628.596 764.643 624.808 764.411 623.061C764.251 623.068 764.159 623.071 764.159 623.071C764.159 623.071 764.638 629.172 766.913 630.558C769.189 631.944 780.492 633.343 789.033 633.274C791.498 633.254 792.35 632.377 792.303 631.078C791.96 631.863 791.02 632.353 789.185 632.368Z" fill="black"/>
<path id="Vector_29" d="M614.871 644.6C614.871 644.6 624.458 643.141 627.108 640.725C629.759 638.309 641.363 634.405 642.483 637.63C643.602 640.855 658.934 652.355 648.081 653.755C637.227 655.156 622.633 655.114 619.526 653.7C616.418 652.287 614.871 644.6 614.871 644.6Z" fill="#A8A8A8"/>
<path id="Vector_30" opacity="0.2" d="M148.896 646.025C140.447 647.115 129.085 647.082 126.666 645.982C124.824 645.144 123.687 641.475 123.249 639.773C123.091 639.799 123 639.813 123 639.813C123 639.813 124.205 645.797 126.624 646.897C129.043 647.998 140.405 648.031 148.854 646.94C151.293 646.626 152.031 645.655 151.83 644.374C151.584 645.193 150.712 645.79 148.896 646.025Z" fill="black"/>
<path id="Vector_31" opacity="0.1" d="M384.307 628.041C384.307 658.261 342.183 648.914 290.607 648.914C239.031 648.914 197.533 658.261 197.533 628.041C197.533 597.821 239.651 591.248 291.227 591.248C342.804 591.248 384.307 597.821 384.307 628.041Z" fill="black"/>
<path id="Vector_32" d="M384.307 620.6C384.307 650.821 342.183 641.473 290.607 641.473C239.031 641.473 197.533 650.821 197.533 620.6C197.533 590.38 239.651 583.807 291.227 583.807C342.804 583.807 384.307 590.38 384.307 620.6Z" fill="#3F3D56"/>
</g>
<g id="person">
<path id="Vector_33" d="M382.651 488.513C380.166 489.782 377.804 491.279 375.594 492.984C373.376 494.703 371.678 497.002 370.688 499.628C369.445 496.718 368.429 493.715 367.649 490.648C365.898 485.142 363.825 479.745 361.442 474.482C365.354 472.992 368.745 470.392 371.199 467C375.998 471.778 380.933 476.762 383.321 483.099C383.732 484.191 384.929 485.355 385.207 486.333C385.6 487.716 383.7 487.935 382.651 488.513Z" fill="#FFBFC5"/>
<path id="Vector_34" d="M443.258 607.331C444.395 608.492 444.889 610.161 446.005 611.342C446.755 612.058 447.613 612.652 448.546 613.105L455.118 616.723C456.128 617.32 457.191 617.822 458.294 618.223C459.532 618.568 460.792 618.831 462.065 619.01C463.887 619.352 465.669 619.878 467.384 620.58C468.672 621.107 470.109 622.018 470.103 623.41C470.05 624.09 469.773 624.734 469.314 625.239C466.723 628.503 462.137 629.226 457.992 629.665C449.021 630.613 439.84 631.324 431.07 629.21C429.358 628.895 427.739 628.194 426.338 627.162C423.691 624.969 423.164 620.974 424.153 617.682C424.432 616.42 425.179 615.31 426.243 614.575C427.632 613.779 429.363 614.148 430.959 614.025C432.657 613.793 434.302 613.27 435.821 612.477C436.824 612.024 437.979 611.441 438.193 610.248C438.393 609.142 437.093 608.034 437.366 607.045C437.973 604.854 442.21 606.262 443.258 607.331Z" fill="#575A89"/>
<path id="Vector_35" d="M382.791 529.577C387.849 529.007 393.715 528.912 397.135 532.681C399.232 534.993 399.869 538.231 400.595 541.267C401.73 546.364 403.574 551.278 406.075 555.863C407.684 558.703 409.634 561.369 410.868 564.391C412.133 567.488 412.598 570.84 413.338 574.103C416.303 586.996 423.54 598.507 433.874 606.768C432.05 611.73 426.773 614.565 421.64 615.833C420.552 616.294 419.34 616.377 418.2 616.066C417.059 615.755 416.057 615.07 415.353 614.12C412.951 611.528 410.714 608.787 408.656 605.915C401.256 596.035 393.744 585.946 389.714 574.279C388.3 570.185 386.886 565.405 382.907 563.695C380.637 562.719 378.042 563.023 375.607 563.436C370.164 564.359 364.808 565.734 359.593 567.548C354.034 569.481 347.669 571.861 342.581 568.902C339.536 567.132 337.724 563.731 337.056 560.273C336.553 556.782 336.548 553.238 337.042 549.745C337.076 548.165 337.455 546.611 338.153 545.193C338.857 544.132 339.76 543.219 340.812 542.502C345.355 539.05 350.409 536.328 355.791 534.432C360.932 532.62 366.457 532.006 371.82 531.11C375.463 530.502 379.12 529.991 382.791 529.577Z" fill="#575A89"/>
<path id="Vector_36" d="M411.745 566.05C414.091 567.234 416.246 568.764 418.137 570.59C420.088 572.889 421.57 575.548 422.499 578.416C422.915 579.373 423.17 580.393 423.254 581.433C423.292 581.954 423.211 582.477 423.017 582.962C422.823 583.447 422.522 583.881 422.135 584.232C421.199 584.834 420.088 585.106 418.979 585.004C417.512 585.016 416.046 584.977 414.581 584.889C413.691 584.882 412.808 584.715 411.977 584.395C411.216 584.007 410.529 583.487 409.948 582.859C407.37 580.465 405.259 577.614 403.72 574.45C402.659 572.109 400.911 566.713 402.582 564.277C404.304 561.767 409.925 565.017 411.745 566.05Z" fill="#FFBFC5"/>
<path id="Vector_37" opacity="0.1" d="M354.135 493.793C358.862 493.121 363.679 493.508 368.238 494.925C369.76 495.273 371.135 496.088 372.169 497.257C372.757 498.143 373.139 499.149 373.289 500.201C374.219 505.041 373.622 510.051 371.582 514.537C371.436 514.761 371.34 515.014 371.299 515.278C371.258 515.542 371.274 515.812 371.346 516.07C371.552 516.382 371.82 516.648 372.134 516.85C372.418 517.123 372.641 517.454 372.788 517.819C372.935 518.185 373.003 518.578 372.987 518.972C372.971 519.365 372.871 519.751 372.695 520.104C372.519 520.457 372.27 520.768 371.965 521.017C371.588 521.293 371.092 521.532 371.019 521.994C370.938 522.496 371.411 522.891 371.778 523.243C372.317 523.771 372.715 524.426 372.934 525.147C373.154 525.869 373.188 526.634 373.034 527.373C372.835 527.967 372.699 528.58 372.627 529.203C372.703 529.964 372.928 530.703 373.288 531.379C373.903 532.902 374.113 534.559 373.897 536.188C373.702 536.958 373.683 537.762 373.842 538.541C374.064 539.056 374.365 539.533 374.736 539.954C376.19 541.916 376.51 545.198 374.399 546.429C375.302 546.892 376.038 547.626 376.505 548.527C376.971 549.429 377.144 550.454 377 551.458C378.26 550.785 379.788 551.646 380.837 552.615C381.887 553.584 382.959 554.769 384.386 554.84C385.381 554.89 386.429 554.374 387.337 554.783C388.717 555.406 388.67 557.644 390.027 558.315C391.218 558.903 392.876 557.943 393.89 558.8C394.243 559.099 394.423 559.56 394.764 559.872C395.534 560.577 396.737 560.277 397.78 560.236C399.018 560.271 400.224 560.629 401.28 561.274C402.337 561.918 403.206 562.828 403.803 563.913C404.968 566.097 405.671 568.498 405.867 570.965C406.134 572.306 406.108 573.689 405.79 575.019C405.619 575.68 405.257 576.277 404.749 576.734C404.242 577.192 403.61 577.49 402.935 577.591C390.513 578.395 378.257 575.417 366.163 572.472C362.611 571.607 358.998 570.595 356.035 568.452C353.343 566.506 351.364 563.752 349.434 561.049C345.874 556.065 342.292 551.042 339.745 545.472C336.467 538.303 335.005 530.461 333.571 522.71C333.078 520.632 332.903 518.491 333.051 516.36C333.481 513.868 334.434 511.495 335.847 509.397C337.556 506.616 339.446 503.951 341.506 501.419C344.636 497.412 349.131 494.697 354.135 493.793Z" fill="black"/>
<path id="Vector_38" opacity="0.1" d="M443.04 607.343C444.177 608.504 444.671 610.172 445.787 611.354C446.538 612.069 447.395 612.664 448.328 613.117L454.9 616.734C455.91 617.331 456.973 617.834 458.076 618.235C459.314 618.58 460.574 618.843 461.847 619.022C463.669 619.363 465.451 619.889 467.166 620.591C468.454 621.119 469.891 622.029 469.885 623.422C469.832 624.102 469.555 624.745 469.097 625.251C466.505 628.515 461.919 629.238 457.774 629.676C448.803 630.625 439.622 631.336 430.852 629.222C429.14 628.906 427.522 628.206 426.12 627.173C423.474 624.981 422.947 620.986 423.935 617.694C424.215 616.432 424.961 615.322 426.025 614.587C427.414 613.79 429.145 614.16 430.741 614.037C432.439 613.805 434.084 613.281 435.603 612.488C436.606 612.036 437.761 611.453 437.976 610.26C438.175 609.153 436.875 608.045 437.148 607.057C437.755 604.866 441.992 606.274 443.04 607.343Z" fill="black"/>
<path id="Vector_39" d="M458.288 643.241C459.209 643.847 460.129 644.455 461.048 645.063C461.895 645.514 462.592 646.202 463.055 647.042C463.653 648.449 462.843 650.041 461.943 651.276C459.242 654.97 455.554 657.828 451.303 659.522C449.829 660.136 448.271 660.524 446.681 660.675C446.318 660.731 445.946 660.684 445.607 660.539C444.766 660.095 444.887 658.892 444.876 657.94C444.847 655.179 442.762 652.937 440.887 650.908C439.013 648.88 437.102 646.383 437.532 643.655C437.921 642.049 438.744 640.58 439.911 639.41C440.949 638.107 442.167 636.958 443.528 635.997C445.478 634.722 446.166 635.408 448.001 636.578C451.446 638.773 454.875 640.994 458.288 643.241Z" fill="#F1F1F1"/>
<path id="Vector_40" d="M449.316 656.694C450.067 656.883 450.852 656.893 451.608 656.723C452.363 656.553 453.068 656.206 453.665 655.713C454.85 654.714 455.812 653.477 456.489 652.083C457.16 650.842 457.744 649.556 458.237 648.233C458.814 646.685 459.349 644.973 460.709 644.034C462.358 642.896 464.68 643.342 466.356 644.44C467.936 645.672 469.386 647.062 470.686 648.587C474.167 651.834 478.387 654.182 482.981 655.429C487.555 656.664 492.192 657.655 496.872 658.398C497.807 658.523 498.712 658.814 499.545 659.259C501.426 660.406 502.053 662.968 501.53 665.108C500.866 667.22 499.675 669.127 498.068 670.651C496.804 672.15 495.236 673.364 493.468 674.213C491.973 674.759 490.399 675.057 488.807 675.095C481.101 675.619 473.359 675.013 465.828 673.296C463.061 672.544 460.247 671.982 457.403 671.614C455.67 671.461 453.925 671.51 452.189 671.392C448.738 671.155 445.364 670.265 442.245 668.769C441.486 668.49 440.845 667.959 440.432 667.264C440.207 666.624 440.161 665.936 440.297 665.272L441.449 655.191C441.549 654.314 441.841 653.223 442.713 653.086C443.544 652.956 444.147 653.806 444.67 654.465C445.683 655.678 447.071 656.52 448.615 656.858C450.159 657.196 451.772 657.01 453.199 656.33" fill="#575A89"/>
<path id="Vector_41" opacity="0.1" d="M382.573 529.589C387.631 529.019 393.497 528.923 396.917 532.693C399.014 535.005 399.651 538.243 400.377 541.279C401.512 546.376 403.356 551.29 405.857 555.874C407.466 558.715 409.416 561.381 410.65 564.403C411.915 567.499 412.381 570.852 413.12 574.114C416.085 587.007 423.323 598.519 433.656 606.779C431.832 611.742 426.555 614.577 421.422 615.844C420.334 616.306 419.122 616.388 417.982 616.078C416.841 615.767 415.839 615.081 415.135 614.131C412.733 611.539 410.496 608.799 408.438 605.927C401.038 596.047 393.527 585.958 389.496 574.29C388.082 570.196 386.668 565.417 382.689 563.706C380.419 562.731 377.824 563.035 375.389 563.448C369.946 564.371 364.59 565.746 359.376 567.56C353.816 569.493 347.451 571.873 342.363 568.914C339.318 567.144 337.506 563.743 336.838 560.285C336.335 556.794 336.33 553.249 336.824 549.757C336.858 548.177 337.237 546.623 337.935 545.205C338.639 544.144 339.542 543.23 340.594 542.514C345.138 539.062 350.191 536.34 355.573 534.444C360.714 532.632 366.239 532.017 371.603 531.122C375.245 530.514 378.902 530.003 382.573 529.589Z" fill="black"/>
<path id="Vector_42" d="M340.614 565.226C348.095 567.622 356.057 567.896 363.878 568.626C377.032 569.856 390.027 572.425 402.66 576.293C405.298 576.935 407.783 578.092 409.972 579.697C411.663 581.26 413.095 583.081 414.214 585.093C416.269 588.224 418.13 591.479 419.787 594.838C421.208 597.874 422.291 601.056 423.612 604.136C428.053 614.449 435.075 623.443 444.002 630.253C445.633 631.494 447.45 632.844 447.87 634.85C448.058 636.142 447.847 637.46 447.265 638.628C445.337 643.12 441.334 646.387 437.134 648.887C435.328 649.963 433.341 651.054 432.453 652.959C426.068 650.323 421.323 644.704 417.373 639.039C413.422 633.373 409.918 627.285 404.856 622.587C402.625 620.517 400.091 618.715 398.337 616.228C395.66 612.434 394.936 607.242 391.332 604.314C387.702 601.364 382.495 601.766 377.84 602.222C353.998 604.556 329.973 604.297 306.187 601.447C301.242 600.854 296.161 600.098 291.878 597.558C287.594 595.017 284.259 590.25 284.866 585.307C285.434 580.679 289.288 577.011 293.584 575.199C297.88 573.388 302.628 573.063 307.261 572.542C318.629 571.433 329.825 568.977 340.614 565.226V565.226Z" fill="#575A89"/>
<path id="Vector_43" d="M272.218 574.834C272.806 570.91 274.329 567.194 275.285 563.344C275.765 560.922 276.371 558.526 277.103 556.167C277.127 556.101 277.154 556.036 277.179 555.97C277.422 555.95 277.658 555.876 277.87 555.755C278.081 555.634 278.264 555.468 278.404 555.269C278.535 554.925 278.57 554.553 278.508 554.191C278.489 553.807 278.5 553.422 278.542 553.039C280.107 550.416 281.816 547.882 283.663 545.449C286.902 540.86 289.707 535.982 292.508 531.113C294.804 527.121 297.103 523.122 299.004 518.928C300.429 515.782 301.628 512.533 303.203 509.46C308.811 498.523 318.892 490.468 329.734 484.679C340.134 479.126 351.377 475.383 362.312 470.968C362.593 471.244 362.848 471.545 363.075 471.867C368.983 479.943 369.62 490.556 372.051 500.262C373.033 504.181 374.345 508.086 374.343 512.126C374.339 518.089 371.489 523.637 368.657 528.885C366.125 533.9 363.135 538.671 359.727 543.137C358.053 545.207 356.211 547.136 354.528 549.199C347.636 557.651 343.655 568.043 339.786 578.24C337.546 584.144 333.885 589.381 331.422 595.195C330.476 597.43 329.929 599.839 328.741 601.955C327.552 604.07 325.483 605.931 323.057 605.942C322.347 605.923 321.642 605.812 320.96 605.614C312.176 603.354 304.819 597.542 297.519 592.159C296.216 591.198 294.906 590.246 293.539 589.379C292.158 588.504 290.724 587.718 289.291 586.933C288.205 586.338 287.119 585.743 286.033 585.148C282.473 583.197 278.909 581.244 275.201 579.595C274.086 579.147 273.015 578.597 272.001 577.952C271.99 576.908 272.063 575.866 272.218 574.834V574.834Z" fill="#F07C41"/>
<path id="Vector_44" d="M387.066 487.854C398.244 487.854 407.306 478.792 407.306 467.614C407.306 456.436 398.244 447.375 387.066 447.375C375.888 447.375 366.827 456.436 366.827 467.614C366.827 478.792 375.888 487.854 387.066 487.854Z" fill="#FFBFC5"/>
<path id="Vector_45" d="M400.681 458.144C401.17 459 401.911 459.684 402.803 460.103C403.695 460.522 404.694 460.657 405.665 460.488C406.631 460.294 407.544 459.898 408.346 459.326C409.148 458.754 409.819 458.019 410.317 457.17C411.301 455.461 411.89 453.553 412.04 451.587C412.198 450.832 412.204 450.054 412.06 449.296C411.915 448.539 411.622 447.818 411.197 447.174C410.442 446.443 409.576 445.837 408.63 445.378C407.326 444.564 406.231 443.455 405.433 442.141C404.866 441.206 404.46 440.183 403.951 439.215C402.11 435.718 398.528 432.875 394.578 433.004C392.681 433.066 390.873 433.788 389.003 434.115C382.729 435.216 375.908 431.896 370.087 434.485C368.655 435.182 367.323 436.07 366.129 437.124C364.491 438.476 362.916 439.9 361.404 441.396C360.091 442.515 359.098 443.961 358.524 445.588C357.733 448.557 359.614 451.875 358.417 454.705C358.008 455.516 357.519 456.283 356.958 456.997C355.637 458.934 357.072 466.495 356.926 468.835C356.758 469.98 357.049 471.146 357.736 472.077C358.691 473.141 360.297 473.234 361.726 473.252L364.354 473.283C364.747 473.31 365.141 473.27 365.52 473.163C366.035 472.934 366.489 472.584 366.842 472.144C369.027 469.841 369.501 462.311 372.675 462.338C373.157 462.312 373.636 462.436 374.044 462.693C374.62 463.115 374.789 463.889 375.196 464.475C375.662 465.025 376.293 465.411 376.995 465.574C377.698 465.738 378.434 465.672 379.095 465.385C380.407 464.779 381.547 463.858 382.415 462.703C383.28 461.551 384.328 460.549 385.519 459.738C387.21 458.751 389.122 458.322 390.768 457.207C392.144 456.275 392.927 454.923 394.162 453.894C394.656 453.468 395.276 453.217 395.927 453.181C396.578 453.144 397.222 453.324 397.76 453.692C399.708 454.708 399.793 456.374 400.681 458.144Z" fill="#2F2E41"/>
<path id="Vector_46" d="M354.736 492.985C359.463 492.314 364.28 492.701 368.839 494.118C370.361 494.466 371.736 495.281 372.77 496.45C373.358 497.336 373.74 498.341 373.89 499.394C374.82 504.234 374.223 509.243 372.183 513.73C372.037 513.954 371.941 514.207 371.9 514.471C371.86 514.735 371.876 515.005 371.947 515.263C372.153 515.575 372.421 515.84 372.735 516.043C373.019 516.316 373.242 516.647 373.389 517.012C373.536 517.378 373.604 517.771 373.588 518.164C373.572 518.558 373.473 518.944 373.296 519.297C373.12 519.649 372.871 519.961 372.566 520.21C372.189 520.485 371.693 520.725 371.62 521.186C371.539 521.689 372.012 522.084 372.38 522.436C372.919 522.964 373.316 523.618 373.535 524.34C373.755 525.062 373.789 525.827 373.635 526.565C373.436 527.16 373.3 527.773 373.228 528.396C373.305 529.157 373.529 529.896 373.889 530.572C374.504 532.095 374.714 533.752 374.499 535.381C374.303 536.151 374.284 536.955 374.443 537.734C374.665 538.249 374.966 538.725 375.337 539.146C376.791 541.109 377.111 544.391 375 545.621C375.904 546.085 376.639 546.818 377.106 547.72C377.572 548.622 377.745 549.647 377.601 550.651C378.861 549.978 380.389 550.839 381.438 551.808C382.488 552.777 383.56 553.962 384.987 554.033C385.982 554.083 387.03 553.567 387.938 553.976C389.318 554.599 389.271 556.837 390.628 557.508C391.819 558.096 393.477 557.136 394.491 557.993C394.844 558.291 395.024 558.753 395.365 559.065C396.135 559.77 397.338 559.47 398.381 559.429C399.619 559.464 400.825 559.821 401.881 560.466C402.938 561.111 403.807 562.021 404.404 563.106C405.569 565.29 406.272 567.69 406.469 570.158C406.735 571.499 406.709 572.882 406.391 574.211C406.22 574.873 405.858 575.47 405.35 575.927C404.843 576.385 404.212 576.683 403.536 576.784C391.115 577.588 378.858 574.61 366.764 571.665C363.212 570.8 359.599 569.788 356.636 567.645C353.944 565.699 351.965 562.945 350.035 560.242C346.475 555.258 342.893 550.235 340.346 544.665C337.068 537.496 335.606 529.654 334.173 521.903C333.679 519.824 333.504 517.683 333.652 515.553C334.082 513.06 335.035 510.687 336.448 508.59C338.157 505.809 340.047 503.144 342.107 500.612C345.237 496.604 349.732 493.89 354.736 492.985Z" fill="#F07C41"/>
</g>
</g>
</svg>
