<svg width="230" height="243" viewBox="0 0 230 243" fill="none" xmlns="http://www.w3.org/2000/svg">
<g id="person">
<path id="Vector" d="M110.651 55.5126C108.166 56.7825 105.804 58.2794 103.594 59.9843C101.376 61.7026 99.6777 64.0024 98.6879 66.6281C97.4448 63.7176 96.4289 60.715 95.6495 57.6476C93.8978 52.1425 91.8249 46.7448 89.4415 41.4824C93.3537 39.9922 96.7452 37.3916 99.1992 34C103.998 38.7783 108.933 43.7618 111.321 50.0991C111.732 51.1911 112.929 52.355 113.207 53.3328C113.6 54.7159 111.7 54.9354 110.651 55.5126Z" fill="#FFBFC5"/>
<path id="Vector_2" d="M171.258 174.331C172.395 175.492 172.889 177.161 174.005 178.342C174.755 179.058 175.613 179.652 176.546 180.105L183.118 183.723C184.128 184.32 185.191 184.822 186.294 185.223C187.532 185.568 188.792 185.831 190.065 186.01C191.887 186.352 193.669 186.878 195.384 187.58C196.672 188.107 198.109 189.018 198.103 190.41C198.05 191.09 197.773 191.734 197.314 192.239C194.723 195.503 190.137 196.226 185.992 196.665C177.021 197.613 167.84 198.324 159.07 196.21C157.358 195.895 155.739 195.194 154.338 194.162C151.691 191.969 151.164 187.974 152.153 184.682C152.432 183.42 153.179 182.31 154.243 181.575C155.632 180.779 157.363 181.148 158.959 181.025C160.657 180.793 162.302 180.27 163.821 179.477C164.824 179.024 165.979 178.441 166.193 177.248C166.393 176.142 165.093 175.034 165.366 174.045C165.973 171.854 170.21 173.262 171.258 174.331Z" fill="#575A89"/>
<path id="Vector_3" d="M110.791 96.577C115.849 96.0069 121.715 95.9117 125.135 99.6812C127.232 101.993 127.869 105.231 128.595 108.267C129.73 113.364 131.574 118.278 134.075 122.863C135.684 125.703 137.634 128.369 138.868 131.391C140.133 134.488 140.598 137.84 141.338 141.103C144.303 153.996 151.54 165.507 161.874 173.768C160.05 178.73 154.773 181.565 149.64 182.833C148.552 183.294 147.34 183.377 146.2 183.066C145.059 182.755 144.057 182.07 143.353 181.12C140.951 178.528 138.714 175.787 136.656 172.915C129.256 163.035 121.744 152.946 117.714 141.279C116.3 137.185 114.886 132.405 110.907 130.695C108.637 129.719 106.042 130.023 103.607 130.436C98.1639 131.359 92.8076 132.734 87.5935 134.548C82.0343 136.481 75.6691 138.861 70.581 135.902C67.5364 134.132 65.7243 130.731 65.0557 127.273C64.5526 123.782 64.5478 120.238 65.0417 116.745C65.0755 115.165 65.4547 113.611 66.1527 112.193C66.8568 111.132 67.7598 110.219 68.8119 109.502C73.3555 106.05 78.409 103.328 83.7907 101.432C88.9317 99.6201 94.4573 99.0056 99.8205 98.1101C103.463 97.5019 107.12 96.9909 110.791 96.577Z" fill="#575A89"/>
<path id="Vector_4" d="M139.745 133.05C142.091 134.234 144.246 135.764 146.137 137.59C148.088 139.889 149.57 142.548 150.499 145.416C150.915 146.373 151.17 147.393 151.254 148.433C151.292 148.954 151.211 149.477 151.017 149.962C150.823 150.447 150.522 150.881 150.135 151.232C149.199 151.834 148.088 152.106 146.979 152.004C145.512 152.016 144.046 151.977 142.581 151.889C141.691 151.882 140.808 151.715 139.977 151.395C139.216 151.007 138.529 150.487 137.948 149.859C135.37 147.465 133.259 144.614 131.72 141.45C130.659 139.109 128.911 133.713 130.582 131.277C132.304 128.767 137.925 132.017 139.745 133.05Z" fill="#FFBFC5"/>
<path id="Vector_5" opacity="0.1" d="M82.135 60.7926C86.862 60.1212 91.6791 60.508 96.2383 61.9253C97.76 62.2727 99.1345 63.0882 100.169 64.2572C100.757 65.1428 101.139 66.1485 101.289 67.2009C102.219 72.0411 101.622 77.0505 99.5823 81.5372C99.4364 81.7613 99.3399 82.0138 99.2992 82.2781C99.2585 82.5423 99.2745 82.8123 99.3461 83.0699C99.5516 83.3818 99.8198 83.6477 100.134 83.8503C100.418 84.1235 100.641 84.4538 100.788 84.8194C100.935 85.1851 101.003 85.5778 100.987 85.9716C100.971 86.3654 100.871 86.7513 100.695 87.1039C100.519 87.4565 100.27 87.7677 99.9651 88.017C99.5877 88.2925 99.0924 88.5322 99.0186 88.9936C98.9381 89.4965 99.4107 89.8908 99.7785 90.2431C100.317 90.7708 100.715 91.4256 100.934 92.1473C101.154 92.869 101.188 93.6343 101.034 94.3726C100.835 94.967 100.699 95.5804 100.627 96.2029C100.703 96.9643 100.928 97.7034 101.288 98.3786C101.903 99.9023 102.113 101.559 101.897 103.188C101.702 103.958 101.683 104.762 101.842 105.541C102.064 106.056 102.365 106.533 102.736 106.954C104.19 108.916 104.51 112.198 102.399 113.429C103.302 113.892 104.038 114.626 104.505 115.527C104.971 116.429 105.144 117.454 105 118.458C106.26 117.785 107.788 118.646 108.837 119.615C109.887 120.584 110.959 121.769 112.386 121.84C113.381 121.89 114.429 121.374 115.337 121.783C116.717 122.406 116.67 124.644 118.027 125.315C119.218 125.903 120.876 124.943 121.89 125.8C122.243 126.099 122.423 126.56 122.764 126.872C123.534 127.577 124.737 127.277 125.78 127.236C127.018 127.271 128.224 127.629 129.28 128.274C130.337 128.918 131.206 129.828 131.803 130.913C132.968 133.097 133.671 135.498 133.867 137.965C134.134 139.306 134.108 140.689 133.79 142.019C133.619 142.68 133.257 143.277 132.749 143.734C132.242 144.192 131.61 144.49 130.935 144.591C118.513 145.395 106.257 142.417 94.1631 139.472C90.6108 138.607 86.9976 137.595 84.0351 135.452C81.3434 133.506 79.3641 130.752 77.4336 128.049C73.8743 123.065 70.2924 118.042 67.7451 112.472C64.4666 105.303 63.0049 97.461 61.5715 89.7097C61.0781 87.6315 60.9026 85.4905 61.0511 83.3597C61.4809 80.8675 62.4337 78.4946 63.8468 76.3973C65.5559 73.6165 67.4463 70.9513 69.5056 68.4189C72.6355 64.4116 77.1312 61.6969 82.135 60.7926Z" fill="black"/>
<path id="Vector_6" opacity="0.1" d="M171.04 174.343C172.177 175.504 172.671 177.172 173.787 178.354C174.538 179.069 175.395 179.664 176.328 180.117L182.9 183.734C183.91 184.331 184.973 184.834 186.076 185.235C187.314 185.58 188.574 185.843 189.847 186.022C191.669 186.363 193.451 186.889 195.166 187.591C196.454 188.119 197.891 189.029 197.885 190.422C197.832 191.102 197.555 191.745 197.097 192.251C194.505 195.515 189.919 196.238 185.774 196.676C176.803 197.625 167.622 198.336 158.852 196.222C157.14 195.906 155.522 195.206 154.12 194.173C151.474 191.981 150.947 187.986 151.935 184.694C152.215 183.432 152.961 182.322 154.025 181.587C155.414 180.79 157.145 181.16 158.741 181.037C160.439 180.805 162.084 180.281 163.603 179.488C164.606 179.036 165.761 178.453 165.976 177.26C166.175 176.153 164.875 175.045 165.148 174.057C165.755 171.866 169.992 173.274 171.04 174.343Z" fill="black"/>
<path id="Vector_7" d="M186.288 210.241C187.209 210.847 188.129 211.455 189.048 212.063C189.895 212.514 190.592 213.202 191.055 214.042C191.653 215.449 190.843 217.041 189.943 218.276C187.242 221.97 183.554 224.828 179.303 226.522C177.829 227.136 176.271 227.524 174.681 227.675C174.318 227.731 173.946 227.684 173.607 227.539C172.766 227.095 172.887 225.892 172.876 224.94C172.847 222.179 170.762 219.937 168.887 217.908C167.013 215.88 165.102 213.383 165.532 210.655C165.921 209.049 166.744 207.58 167.911 206.41C168.949 205.107 170.167 203.958 171.528 202.997C173.478 201.722 174.166 202.408 176.001 203.578C179.446 205.773 182.875 207.994 186.288 210.241Z" fill="#F1F1F1"/>
<path id="Vector_8" d="M177.316 223.694C178.067 223.883 178.852 223.893 179.608 223.723C180.363 223.553 181.068 223.206 181.665 222.713C182.85 221.714 183.812 220.477 184.489 219.083C185.16 217.842 185.744 216.556 186.237 215.233C186.814 213.685 187.349 211.973 188.709 211.034C190.358 209.896 192.68 210.342 194.356 211.44C195.936 212.672 197.386 214.062 198.686 215.587C202.167 218.834 206.387 221.182 210.981 222.429C215.555 223.664 220.192 224.655 224.872 225.398C225.807 225.523 226.712 225.814 227.545 226.259C229.426 227.406 230.053 229.968 229.53 232.108C228.866 234.22 227.675 236.127 226.068 237.651C224.804 239.15 223.236 240.364 221.468 241.213C219.973 241.759 218.399 242.057 216.807 242.095C209.101 242.619 201.359 242.013 193.828 240.296C191.061 239.544 188.247 238.982 185.403 238.614C183.67 238.461 181.925 238.51 180.189 238.392C176.738 238.155 173.364 237.265 170.245 235.769C169.486 235.49 168.845 234.959 168.432 234.264C168.207 233.624 168.161 232.936 168.297 232.272L169.449 222.191C169.549 221.314 169.841 220.223 170.713 220.086C171.544 219.956 172.147 220.806 172.67 221.465C173.683 222.678 175.071 223.52 176.615 223.858C178.159 224.196 179.772 224.01 181.199 223.33" fill="#575A89"/>
<path id="Vector_9" opacity="0.1" d="M110.573 96.5888C115.631 96.0187 121.497 95.9235 124.917 99.693C127.014 102.005 127.651 105.243 128.377 108.279C129.512 113.376 131.356 118.29 133.857 122.874C135.466 125.715 137.416 128.381 138.65 131.403C139.915 134.499 140.381 137.852 141.12 141.114C144.085 154.007 151.323 165.519 161.656 173.779C159.832 178.742 154.555 181.577 149.422 182.844C148.334 183.306 147.122 183.388 145.982 183.078C144.841 182.767 143.839 182.081 143.135 181.131C140.733 178.539 138.496 175.799 136.438 172.927C129.038 163.047 121.527 152.958 117.496 141.29C116.082 137.196 114.668 132.417 110.689 130.706C108.419 129.731 105.824 130.035 103.389 130.448C97.946 131.371 92.5897 132.746 87.3756 134.56C81.8164 136.493 75.4512 138.873 70.3631 135.914C67.3185 134.144 65.5064 130.743 64.8378 127.285C64.3347 123.794 64.3299 120.249 64.8238 116.757C64.8576 115.177 65.2368 113.623 65.9348 112.205C66.6389 111.144 67.5419 110.23 68.594 109.514C73.1376 106.062 78.1911 103.34 83.5728 101.444C88.7138 99.6319 94.2394 99.0174 99.6026 98.1219C103.245 97.5137 106.902 97.0027 110.573 96.5888Z" fill="black"/>
<path id="Vector_10" d="M68.6143 132.226C76.0947 134.622 84.057 134.896 91.8777 135.626C105.032 136.856 118.027 139.425 130.66 143.293C133.298 143.935 135.783 145.092 137.972 146.697C139.663 148.26 141.095 150.081 142.214 152.093C144.269 155.224 146.13 158.479 147.787 161.838C149.208 164.874 150.291 168.056 151.612 171.136C156.053 181.449 163.075 190.443 172.002 197.253C173.633 198.494 175.45 199.844 175.87 201.85C176.058 203.142 175.847 204.46 175.265 205.628C173.337 210.12 169.334 213.387 165.134 215.887C163.328 216.963 161.341 218.054 160.453 219.959C154.068 217.323 149.323 211.704 145.373 206.039C141.422 200.373 137.918 194.285 132.856 189.587C130.625 187.517 128.091 185.715 126.337 183.228C123.66 179.434 122.936 174.242 119.332 171.314C115.702 168.364 110.495 168.766 105.84 169.222C81.998 171.556 57.9729 171.297 34.1868 168.447C29.2418 167.854 24.1613 167.098 19.8777 164.558C15.5941 162.017 12.2587 157.25 12.866 152.307C13.4344 147.679 17.2883 144.011 21.584 142.199C25.8797 140.388 30.6278 140.063 35.2606 139.542C46.629 138.433 57.8253 135.977 68.6143 132.226V132.226Z" fill="#575A89"/>
<path id="Vector_11" d="M0.218363 141.834C0.805543 137.91 2.32916 134.194 3.28535 130.344C3.76483 127.922 4.37149 125.526 5.10282 123.167C5.12702 123.101 5.15433 123.036 5.17921 122.97C5.42225 122.95 5.65792 122.876 5.86961 122.755C6.0813 122.634 6.26385 122.468 6.4044 122.269C6.53459 121.925 6.5704 121.553 6.50807 121.191C6.48901 120.807 6.5004 120.422 6.54215 120.039C8.10655 117.416 9.8161 114.882 11.6628 112.449C14.9018 107.86 17.7075 102.982 20.5079 98.1132C22.8038 94.1214 25.1035 90.122 27.0041 85.9277C28.4293 82.7824 29.6276 79.5327 31.2032 76.46C36.8114 65.523 46.8916 57.4681 57.7338 51.6789C68.1336 46.1259 79.3771 42.3825 90.312 37.9675C90.593 38.2438 90.8483 38.545 91.0749 38.8674C96.9829 46.9428 97.6199 57.556 100.051 67.262C101.033 71.1809 102.345 75.0864 102.343 79.1263C102.339 85.0895 99.4892 90.6375 96.6566 95.8849C94.1247 100.9 91.1355 105.671 87.7268 110.137C86.0535 112.207 84.2109 114.136 82.5284 116.199C75.6356 124.651 71.6554 135.043 67.7861 145.24C65.5458 151.144 61.8846 156.381 59.4219 162.195C58.4756 164.43 57.9293 166.839 56.7406 168.955C55.552 171.07 53.4835 172.931 51.0569 172.942C50.3467 172.923 49.6419 172.812 48.9598 172.614C40.1758 170.354 32.8191 164.542 25.5192 159.159C24.2164 158.198 22.9057 157.246 21.5386 156.379C20.1584 155.504 18.7241 154.718 17.2908 153.933C16.2048 153.338 15.1188 152.743 14.0327 152.148C10.4734 150.197 6.9091 148.244 3.20072 146.595C2.08587 146.147 1.01476 145.597 0.00107742 144.952C-0.00988283 143.908 0.0627947 142.866 0.218363 141.834V141.834Z" fill="#F07C41"/>
<path id="Vector_12" d="M115.066 54.854C126.244 54.854 135.306 45.7924 135.306 34.6144C135.306 23.4364 126.244 14.3748 115.066 14.3748C103.888 14.3748 94.8268 23.4364 94.8268 34.6144C94.8268 45.7924 103.888 54.854 115.066 54.854Z" fill="#FFBFC5"/>
<path id="Vector_13" d="M128.681 25.1445C129.17 25.9998 129.911 26.6837 130.803 27.1029C131.695 27.5222 132.694 27.6565 133.665 27.4877C134.631 27.2938 135.544 26.8979 136.346 26.3261C137.148 25.7543 137.819 25.0194 138.317 24.1697C139.301 22.461 139.89 20.5534 140.04 18.5872C140.198 17.8323 140.204 17.0537 140.06 16.2963C139.915 15.5388 139.622 14.8175 139.197 14.1738C138.442 13.4427 137.576 12.8366 136.63 12.3785C135.326 11.564 134.231 10.4554 133.433 9.14137C132.866 8.206 132.46 7.18318 131.951 6.2154C130.11 2.71846 126.528 -0.124758 122.578 0.00422185C120.681 0.0662218 118.873 0.787506 117.003 1.11534C110.729 2.21561 103.908 -1.10426 98.0874 1.48487C96.6549 2.18173 95.3234 3.06959 94.1294 4.12416C92.491 5.4758 90.9159 6.89964 89.4041 8.3957C88.0912 9.51455 87.0976 10.9607 86.5241 12.5875C85.7333 15.5569 87.6137 18.8749 86.4172 21.7053C86.0077 22.5156 85.5189 23.2833 84.958 23.9972C83.6372 25.9339 85.0723 33.4949 84.9261 35.8345C84.7578 36.98 85.049 38.1456 85.7362 39.0773C86.6908 40.1413 88.2968 40.2345 89.7262 40.2517L92.3539 40.2833C92.7465 40.3104 93.1409 40.2697 93.5197 40.1632C94.0354 39.9335 94.4887 39.584 94.842 39.1437C97.0273 36.8412 97.5009 29.3109 100.675 29.3384C101.157 29.3117 101.636 29.4356 102.044 29.6931C102.62 30.1147 102.789 30.8893 103.196 31.4747C103.662 32.0249 104.293 32.4105 104.995 32.5745C105.698 32.7384 106.434 32.672 107.095 32.3851C108.407 31.7792 109.547 30.8577 110.415 29.703C111.28 28.5506 112.328 27.5488 113.519 26.738C115.21 25.7514 117.122 25.3216 118.768 24.2068C120.144 23.2749 120.927 21.9229 122.162 20.8937C122.656 20.4679 123.276 20.2173 123.927 20.1809C124.578 20.1444 125.222 20.3241 125.76 20.692C127.708 21.7084 127.793 23.3743 128.681 25.1445Z" fill="#2F2E41"/>
<path id="Vector_14" d="M82.736 59.9854C87.463 59.314 92.2802 59.7009 96.8394 61.1182C98.361 61.4655 99.7356 62.281 100.77 63.4501C101.358 64.3356 101.74 65.3413 101.89 66.3937C102.82 71.2339 102.223 76.2433 100.183 80.7299C100.037 80.9541 99.941 81.2066 99.9003 81.4709C99.8595 81.7352 99.8755 82.0051 99.9471 82.2627C100.153 82.5747 100.421 82.8405 100.735 83.0431C101.019 83.3163 101.242 83.6466 101.389 84.0122C101.536 84.3779 101.604 84.7706 101.588 85.1644C101.572 85.5582 101.473 85.9441 101.296 86.2967C101.12 86.6493 100.871 86.9606 100.566 87.2099C100.189 87.4854 99.6934 87.725 99.6196 88.1864C99.5392 88.6894 100.012 89.0836 100.38 89.4359C100.919 89.9636 101.316 90.6184 101.535 91.3401C101.755 92.0618 101.789 92.8271 101.635 93.5655C101.436 94.1598 101.3 94.7732 101.228 95.3957C101.305 96.1571 101.529 96.8963 101.889 97.5715C102.504 99.0952 102.714 100.752 102.499 102.381C102.303 103.151 102.284 103.955 102.443 104.734C102.665 105.249 102.966 105.725 103.337 106.146C104.791 108.109 105.111 111.391 103 112.621C103.904 113.085 104.639 113.818 105.106 114.72C105.572 115.622 105.745 116.647 105.601 117.651C106.861 116.978 108.389 117.839 109.438 118.808C110.488 119.777 111.56 120.962 112.987 121.033C113.982 121.083 115.03 120.567 115.938 120.976C117.318 121.599 117.271 123.837 118.628 124.508C119.819 125.096 121.477 124.136 122.491 124.993C122.844 125.291 123.024 125.753 123.365 126.065C124.135 126.77 125.338 126.47 126.381 126.429C127.619 126.464 128.825 126.821 129.881 127.466C130.938 128.111 131.807 129.021 132.404 130.106C133.569 132.29 134.272 134.69 134.469 137.158C134.735 138.499 134.709 139.882 134.391 141.211C134.22 141.873 133.858 142.47 133.35 142.927C132.843 143.385 132.212 143.683 131.536 143.784C119.115 144.588 106.858 141.61 94.7642 138.665C91.2119 137.8 87.5987 136.788 84.6362 134.645C81.9444 132.699 79.9652 129.945 78.0347 127.242C74.4753 122.258 70.8934 117.235 68.3461 111.665C65.0676 104.496 63.606 96.6539 62.1725 88.9026C61.6791 86.8244 61.5037 84.6833 61.6522 82.5525C62.082 80.0603 63.0348 77.6874 64.4479 75.5901C66.157 72.8093 68.0473 70.1441 70.1067 67.6118C73.2366 63.6045 77.7323 60.8897 82.736 59.9854Z" fill="#F07C41"/>
</g>
</svg>
