<svg width="722" height="167" viewBox="0 0 722 167" fill="none" xmlns="http://www.w3.org/2000/svg">
<g id="plants and rocks">
<path id="Vector" d="M14.611 29.2504C14.611 84.5936 49.3304 129.377 92.237 129.377Z" fill="#3F3D56"/>
<path id="Vector_2" d="M92.2369 129.377C92.2369 73.4116 130.982 28.1254 178.863 28.1254Z" fill="#F07C41"/>
<path id="Vector_3" d="M42.7363 34.2673C42.7363 86.8375 64.8763 129.377 92.237 129.377Z" fill="#F07C41"/>
<path id="Vector_4" d="M92.2369 129.377C92.2369 57.8657 137.02 0 192.363 0Z" fill="#3F3D56"/>
<path id="Vector_5" d="M599.04 65.7841C599.04 103.813 622.897 134.586 652.38 134.586Z" fill="#3F3D56"/>
<path id="Vector_6" d="M652.38 134.586C652.38 96.1294 679.004 65.0111 711.905 65.0111Z" fill="#F07C41"/>
<path id="Vector_7" d="M618.366 69.2315C618.366 105.355 633.58 134.586 652.38 134.586Z" fill="#F07C41"/>
<path id="Vector_8" d="M652.38 134.586C652.38 85.4471 683.153 45.6848 721.182 45.6848Z" fill="#3F3D56"/>
<path id="Vector_9" d="M641.159 135.071C641.159 135.071 648.724 134.838 651.003 133.214C653.283 131.591 662.64 129.653 663.205 132.256C663.771 134.86 674.573 145.205 666.033 145.274C657.493 145.343 646.189 143.944 643.913 142.558C641.638 141.172 641.159 135.071 641.159 135.071Z" fill="#A8A8A8"/>
<path id="Vector_10" opacity="0.2" d="M666.185 144.368C657.645 144.437 646.341 143.037 644.066 141.651C642.333 140.596 641.643 136.808 641.411 135.061C641.251 135.068 641.159 135.071 641.159 135.071C641.159 135.071 641.638 141.172 643.913 142.558C646.189 143.944 657.492 145.343 666.033 145.274C668.498 145.254 669.35 144.377 669.303 143.078C668.96 143.863 668.02 144.353 666.185 144.368Z" fill="black"/>
<path id="Vector_11" d="M491.871 156.6C491.871 156.6 501.458 155.141 504.108 152.725C506.759 150.309 518.363 146.405 519.483 149.63C520.602 152.855 535.934 164.355 525.081 165.755C514.227 167.156 499.633 167.114 496.526 165.7C493.418 164.287 491.871 156.6 491.871 156.6Z" fill="#A8A8A8"/>
<path id="Vector_12" opacity="0.2" d="M25.8964 158.025C17.447 159.115 6.08544 159.082 3.66626 157.982C1.8239 157.144 0.686827 153.475 0.248917 151.773C0.0912766 151.799 0 151.813 0 151.813C0 151.813 1.20457 157.797 3.62378 158.897C6.04299 159.998 17.4046 160.031 25.854 158.94C28.293 158.626 29.0313 157.655 28.8295 156.374C28.5843 157.193 27.7118 157.79 25.8964 158.025Z" fill="black"/>
<path id="Vector_13" opacity="0.1" d="M261.307 140.041C261.307 170.261 219.183 160.914 167.607 160.914C116.031 160.914 74.5334 170.261 74.5334 140.041C74.5334 109.821 116.651 103.248 168.227 103.248C219.804 103.248 261.307 109.821 261.307 140.041Z" fill="black"/>
<path id="Vector_14" d="M261.307 132.6C261.307 162.821 219.183 153.473 167.607 153.473C116.031 153.473 74.5334 162.821 74.5334 132.6C74.5334 102.38 116.651 95.8072 168.227 95.8072C219.804 95.8072 261.307 102.38 261.307 132.6Z" fill="#3F3D56"/>
</g>
</svg>
