<svg width="682" height="333" viewBox="0 0 682 333" fill="none" xmlns="http://www.w3.org/2000/svg">
<g id="stars">
<path id="Vector" d="M302 8.96234C303.657 8.96234 305 7.6192 305 5.96234C305 4.30549 303.657 2.96234 302 2.96234C300.343 2.96234 299 4.30549 299 5.96234C299 7.6192 300.343 8.96234 302 8.96234Z" fill="#F2F2F2"/>
<path id="Vector_2" d="M219 111.962C220.657 111.962 222 110.619 222 108.962C222 107.305 220.657 105.962 219 105.962C217.343 105.962 216 107.305 216 108.962C216 110.619 217.343 111.962 219 111.962Z" fill="#F2F2F2"/>
<path id="Vector_3" d="M422 128.962C423.105 128.962 424 128.067 424 126.962C424 125.858 423.105 124.962 422 124.962C420.895 124.962 420 125.858 420 126.962C420 128.067 420.895 128.962 422 128.962Z" fill="#F2F2F2"/>
<path id="Vector_4" d="M2 173.962C3.10457 173.962 4 173.067 4 171.962C4 170.858 3.10457 169.962 2 169.962C0.89543 169.962 0 170.858 0 171.962C0 173.067 0.89543 173.962 2 173.962Z" fill="#F2F2F2"/>
<path id="Vector_5" d="M434 4.96234C435.105 4.96234 436 4.06691 436 2.96234C436 1.85777 435.105 0.962341 434 0.962341C432.895 0.962341 432 1.85777 432 2.96234C432 4.06691 432.895 4.96234 434 4.96234Z" fill="#F2F2F2"/>
<path id="Vector_6" d="M558 100.962C559.105 100.962 560 100.067 560 98.9623C560 97.8578 559.105 96.9623 558 96.9623C556.895 96.9623 556 97.8578 556 98.9623C556 100.067 556.895 100.962 558 100.962Z" fill="#F2F2F2"/>
<path id="Vector_7" d="M680 252.962C681.105 252.962 682 252.067 682 250.962C682 249.858 681.105 248.962 680 248.962C678.895 248.962 678 249.858 678 250.962C678 252.067 678.895 252.962 680 252.962Z" fill="#F2F2F2"/>
<path id="Vector_8" d="M126 25.222H123.24V22.462H121.76V25.222H119V26.703H121.76V29.462H123.24V26.703H126V25.222Z" fill="#F2F2F2"/>
<path id="Vector_9" d="M668 328.222H665.24V325.462H663.76V328.222H661V329.703H663.76V332.462H665.24V329.703H668V328.222Z" fill="#F2F2F2"/>
</g>
</svg>
